HIERARCHY
ROOT Hips
{
	OFFSET 0.00000 0.00000 0.00000
	CHANNELS 6 Xposition Yposition Zposition Zrotation Yrotation Xrotation 
	JOINT LHipJoint
	{
		OFFSET 0 0 0
		CHANNELS 3 Zrotation Yrotation Xrotation
		JOINT LeftHip
		{
			OFFSET 1.84395 -1.68683 0.74144
			CHANNELS 3 Zrotation Yrotation Xrotation
			JOINT LeftKnee
			{
				OFFSET 2.27037 -6.23779 0.00000
				CHANNELS 3 Zrotation Yrotation Xrotation
				JOINT LeftAnkle
				{
					OFFSET 2.56918 -7.05877 0.00000
					CHANNELS 3 Zrotation Yrotation Xrotation
					JOINT LeftToe
					{
						OFFSET 0.22276 -0.61202 1.71784
						CHANNELS 3 Zrotation Yrotation Xrotation
						End Site
						{
							OFFSET 0.00000 -0.00000 0.91613
						}
					}
				}
			}
		}
	}
	JOINT RHipJoint
	{
		OFFSET 0 0 0
		CHANNELS 3 Zrotation Yrotation Xrotation
		JOINT RightHip
		{
			OFFSET -1.76833 -1.68684 0.74144
			CHANNELS 3 Zrotation Yrotation Xrotation
			JOINT RightKnee
			{
				OFFSET -2.49360 -6.85110 0.00000
				CHANNELS 3 Zrotation Yrotation Xrotation
				JOINT RightAnkle
				{
					OFFSET -2.55538 -7.02085 0.00000
					CHANNELS 3 Zrotation Yrotation Xrotation
					JOINT RightToe
					{
						OFFSET -0.21516 -0.59115 1.68050
						CHANNELS 3 Zrotation Yrotation Xrotation
						End Site
						{
							OFFSET -0.00000 -0.00000 0.89604
						}
					}
				}
			}
		}
	}
	JOINT lowerback
	{
		OFFSET 0 0 0
		CHANNELS 3 Zrotation Yrotation Xrotation
		JOINT Chest
		{
			OFFSET 0.06382 1.72312 -0.19613
			CHANNELS 3 Zrotation Yrotation Xrotation
			JOINT Chest2
			{
				OFFSET -0.00055 1.73507 0.23859
				CHANNELS 3 Zrotation Yrotation Xrotation
				JOINT lowerneck
				{
					OFFSET 0 0 0
					CHANNELS 3 Zrotation Yrotation Xrotation
					JOINT Neck
					{
						OFFSET 0.03638 1.65562 0.09633
						CHANNELS 3 Zrotation Yrotation Xrotation
						JOINT Head
						{
							OFFSET 0.06388 1.62807 -0.32386
							CHANNELS 3 Zrotation Yrotation Xrotation
							End Site
							{
								OFFSET 0.00995 1.67644 -0.12021
							}
						}
					}
				}
				JOINT LeftCollar
				{
					OFFSET 0 0 0
					CHANNELS 3 Zrotation Yrotation Xrotation
					JOINT LeftShoulder
					{
						OFFSET 3.09648 1.42991 0.28122
CHANNELS 3 Zrotation Xrotation Yrotation
						JOINT LeftElbow
						{
OFFSET 0 -5.118780 -0.000000
CHANNELS 3 Zrotation Xrotation Yrotation
							JOINT LeftWrist
							{
OFFSET 0 -3.599710 0.000000
CHANNELS 3 Zrotation Xrotation Yrotation
								JOINT lhand
								{
									OFFSET 0 0 0
CHANNELS 3 Zrotation Xrotation Yrotation
									JOINT LFingers
									{
OFFSET 0 -0.628770 0.000000
CHANNELS 3 Zrotation Xrotation Yrotation
										End Site
										{
OFFSET 0 -0.506930 0.000000
										}
									}
								}
								JOINT LThumb
								{
OFFSET 0 0.000000 0.000000
CHANNELS 3 Zrotation Xrotation Yrotation
									End Site
									{
OFFSET 0 -0.514670 0.514670
									}
								}
							}
						}
					}
				}
				JOINT RightCollar
				{
					OFFSET 0 0 0
					CHANNELS 3 Zrotation Yrotation Xrotation
					JOINT RightShoulder
					{
						OFFSET -3.33565 1.14597 0.05047
CHANNELS 3 Zrotation Xrotation Yrotation
						JOINT RightElbow
						{
OFFSET 0 -5.490200 0.000000
CHANNELS 3 Zrotation Xrotation Yrotation
							JOINT RightWrist
							{
OFFSET 0 -3.206590 -0.000000
CHANNELS 3 Zrotation Xrotation Yrotation
								JOINT rhand
								{
									OFFSET 0 0 0
CHANNELS 3 Zrotation Xrotation Yrotation
									JOINT RFingers
									{
OFFSET 0 -0.691880 0.000000
CHANNELS 3 Zrotation Xrotation Yrotation
										End Site
										{
OFFSET 0 -0.557810 0.000000
										}
									}
								}
								JOINT RThumb
								{
OFFSET 0 0.000000 0.000000
CHANNELS 3 Zrotation Xrotation Yrotation
									End Site
									{
OFFSET 0 -0.566330 0.566330
									}
								}
							}
						}
					}
				}
			}
		}
	}
}
MOTION
Frames: 10
Frame Time: 0.008333333333333333
0.692600 17.417700 9.266600 -10.284500 0.739900 8.049700 0.000000 0.000000 0.000000 -15.938300 -36.995400 22.111400 0.070400 -1.711300 -4.708500 -5.791800 40.527600 -33.106400 0.018000 0.867300 2.383700 0.000000 0.000000 0.000000 29.551300 23.282100 5.548800 -0.032600 -1.165400 3.204000 0.793200 -19.863400 -20.656600 -0.009100 -0.615800 1.692100 7.595800 1.027900 -0.057900 1.584000 1.941500 -9.582700 -2.702500 0.395400 -10.017000 -7.185400 -12.581800 -2.196700 9.390600 -18.207700 15.034800 2.758800 -8.723900 6.457500 -0.000000 0.000000 0.000000 -0.872000 13.603300 0.405900 14.015100 -22.756300 2.833900 -15.557400 -12.872300 -1.990200 0.000000 0.000000 0.000000 -7.125000 0.000000 0.000000 -32.127700 30.551300 -13.306500 -0.000000 0.000000 0.000000 3.131500 13.314700 5.049600 -13.183600 -21.555600 -2.520300 12.544700 33.641000 32.347500 0.000000 0.000000 0.000000 7.125000 0.000000 -0.000000 47.266100 55.850300 -14.943200
0.691018 17.418408 9.274368 -10.041715 0.709901 8.153317 0.000000 0.000000 0.000000 -16.455140 -37.428751 22.289324 0.064207 -1.634969 -4.497859 -5.682880 40.479713 -33.731800 0.038112 1.249998 3.437005 0.000000 0.000000 0.000000 29.220448 23.272524 5.483315 -0.030926 -1.134662 3.119346 0.803783 -19.887053 -20.577460 -0.007038 -0.210130 0.577592 6.960120 0.587328 -0.380874 2.000778 1.309806 -9.512900 -1.849517 0.168209 -9.816565 -7.370907 -12.186906 -2.162691 9.042471 -17.583733 15.002841 2.747740 -8.456799 6.369903 0.000000 0.000000 0.000000 -2.197507 16.531910 -11.356746 13.844453 -22.511799 2.768355 18.126892 -1.105522 2.827754 0.000000 0.000000 0.000000 -7.125000 0.000000 0.000000 -6.475298 26.990677 -2.848309 0.000000 0.000000 0.000000 2.162910 13.258912 6.457402 -13.077753 -21.400999 -2.481646 12.529195 33.406287 32.637634 0.000000 0.000000 0.000000 7.125000 0.000000 0.000000 47.540879 56.063145 -15.327217
0.677196 17.434681 9.315824 -9.460048 0.798814 8.916948 0.000000 0.000000 0.000000 -16.942393 -38.373245 21.942680 0.063478 -1.625761 -4.472624 -5.677602 40.699986 -34.546590 0.072592 1.737874 4.781847 0.000000 0.000000 0.000000 28.287353 23.482397 4.887140 -0.025474 -1.030834 2.833632 0.841314 -20.064471 -20.488999 -0.053323 -1.489499 4.096758 5.704262 -0.051305 -1.759518 2.439835 0.323429 -9.870569 -0.605685 -0.187758 -9.465020 -7.688247 -11.599026 -1.418730 8.717993 -16.746431 15.092950 2.826639 -8.115614 6.196263 0.000000 0.000000 0.000000 -3.391511 17.612416 -10.100982 14.298822 -23.160296 2.944574 18.666889 -1.242391 0.506530 0.000000 0.000000 0.000000 -7.125000 0.000000 0.000000 -6.185638 29.419013 -2.361932 0.000000 0.000000 0.000000 0.939675 13.514355 8.934019 -12.508033 -20.562154 -2.277561 11.847501 33.413716 32.440657 0.000000 0.000000 0.000000 7.125000 0.000000 0.000000 46.750165 56.062248 -14.980272
0.674122 17.436255 9.328013 -9.358551 0.704798 8.940740 0.000000 0.000000 0.000000 -17.319631 -38.652994 22.318033 0.063656 -1.628238 -4.479325 -5.601527 40.790547 -35.358270 0.106816 2.107590 5.803049 0.000000 0.000000 0.000000 28.184805 23.502344 4.955485 -0.024267 -1.006297 2.766068 0.833010 -20.013222 -20.483071 -0.053636 -1.493831 4.108674 5.441461 -0.180270 -1.840159 2.636065 0.145731 -9.840401 -0.241054 -0.242293 -9.389291 -8.250489 -11.392770 -1.336777 9.050910 -16.493461 15.145961 3.036637 -8.003970 6.252084 0.000000 0.000000 0.000000 -3.918614 17.625684 -9.434297 14.224054 -23.054067 2.915313 18.611642 -0.797426 0.838379 0.000000 0.000000 0.000000 -7.125000 0.000000 0.000000 -6.208566 29.070699 -2.422657 0.000000 0.000000 0.000000 0.467527 13.478908 9.815053 -12.526660 -20.589718 -2.284132 11.571604 33.148054 32.347916 0.000000 0.000000 0.000000 7.125000 0.000000 0.000000 46.417093 56.051906 -14.823718
0.674093 17.435396 9.332024 -9.302336 0.715786 9.023934 0.000000 0.000000 0.000000 -17.228859 -38.571491 22.105167 0.063700 -1.628896 -4.481041 -5.576059 40.689757 -35.190131 0.108617 2.124820 5.850732 0.000000 0.000000 0.000000 28.077334 23.495805 4.845773 -0.024900 -1.018873 2.800715 0.838612 -20.019447 -20.426670 -0.048759 -1.424940 3.918837 5.355075 -0.211257 -1.832927 2.630456 0.103618 -9.891917 -0.195231 -0.258008 -9.452044 -8.293239 -11.398223 -1.306067 9.036074 -16.511412 15.272653 3.035799 -8.014782 6.291035 0.000000 0.000000 0.000000 -3.998833 17.698484 -9.362233 14.243000 -23.081032 2.922694 18.558391 -0.879041 0.663053 0.000000 0.000000 0.000000 -7.125000 0.000000 0.000000 -6.260510 29.254522 -2.415661 0.000000 0.000000 0.000000 0.523703 13.430440 10.134005 -12.602484 -20.702067 -2.310872 11.755190 32.780309 32.499070 0.000000 0.000000 0.000000 7.125000 0.000000 0.000000 46.727359 56.123997 -15.045452
0.672735 17.435200 9.340115 -9.455514 0.720803 9.037939 0.000000 0.000000 0.000000 -17.370075 -38.968019 22.579119 0.065953 -1.657093 -4.558820 -5.735509 41.143705 -35.669092 0.105274 2.091715 5.759220 0.000000 0.000000 0.000000 28.292568 23.580358 4.923287 -0.024585 -1.012309 2.782756 0.842324 -20.074503 -20.497849 -0.055621 -1.521887 4.186006 5.487926 -0.221425 -1.884149 2.649070 0.090174 -9.860794 -0.249238 -0.273199 -9.389703 -8.322784 -11.409239 -1.414492 9.290902 -16.567738 15.317483 3.104403 -8.023233 6.353049 0.000000 0.000000 0.000000 -3.997980 17.658817 -9.376649 14.291770 -23.150203 2.941863 18.586876 -0.814047 0.478347 0.000000 0.000000 0.000000 -7.125000 0.000000 0.000000 -6.249708 29.448327 -2.382444 0.000000 0.000000 0.000000 0.606006 13.312161 10.702239 -12.662936 -20.791331 -2.332247 11.823300 31.977221 32.327293 0.000000 0.000000 0.000000 7.125000 0.000000 0.000000 46.617201 55.984745 -14.828348
0.669900 17.435555 9.344492 -9.409761 0.796762 9.107622 0.000000 0.000000 0.000000 -17.297085 -38.993343 22.424868 0.065478 -1.651042 -4.542193 -5.731091 41.099994 -35.551037 0.098276 2.021200 5.564244 0.000000 0.000000 0.000000 28.248329 23.686818 4.940488 -0.023355 -0.986216 2.710816 0.870885 -20.252372 -20.524141 -0.050124 -1.445332 3.974957 5.419826 -0.220147 -1.895406 2.600249 0.088054 -9.913164 -0.262256 -0.272542 -9.440662 -8.017147 -11.394685 -1.213734 9.064874 -16.512861 15.073080 3.015417 -8.006575 6.191209 0.000000 0.000000 0.000000 -3.911227 17.668262 -9.648663 14.338109 -23.216081 2.960117 18.815541 -1.233163 0.652230 0.000000 0.000000 0.000000 -7.125000 0.000000 0.000000 -6.060754 29.266488 -2.336011 0.000000 0.000000 0.000000 0.790888 13.366740 11.169884 -12.849204 -21.065853 -2.398829 11.760872 31.283325 32.437569 0.000000 0.000000 0.000000 7.125000 0.000000 0.000000 46.671380 56.077980 -14.965148
0.669603 17.435397 9.350135 -9.307593 0.810438 9.091551 0.000000 0.000000 0.000000 -17.599523 -39.156667 22.665187 0.065359 -1.649157 -4.537010 -5.724902 41.171636 -35.828810 0.108790 2.126891 5.856571 0.000000 0.000000 0.000000 28.153748 23.687559 5.011852 -0.022659 -0.972280 2.672606 0.869064 -20.266675 -20.577138 -0.052758 -1.481606 4.075119 5.323685 -0.207123 -1.821769 2.550542 0.106172 -9.946581 -0.261770 -0.259937 -9.519250 -8.123848 -11.326463 -1.056067 9.271814 -16.447252 14.986038 3.112232 -7.975349 6.157078 0.000000 0.000000 0.000000 -3.861182 17.583351 -9.555796 14.306210 -23.170761 2.947511 18.645014 -1.068068 0.849294 0.000000 0.000000 0.000000 -7.125000 0.000000 0.000000 -6.181907 29.059438 -2.413775 0.000000 0.000000 0.000000 0.919780 13.542291 11.737588 -13.077065 -21.399978 -2.481320 11.911971 30.693515 32.459764 0.000000 0.000000 0.000000 7.125000 0.000000 0.000000 46.825635 56.062800 -15.013675
0.665763 17.438254 9.354758 -9.529206 0.898188 9.200291 0.000000 0.000000 0.000000 -17.238367 -39.250644 22.583754 0.067489 -1.675784 -4.610384 -5.802888 41.290195 -35.728137 0.096921 2.007700 5.526950 0.000000 0.000000 0.000000 28.394443 23.670020 4.905992 -0.022407 -0.966486 2.656512 0.867584 -20.256707 -20.573812 -0.050030 -1.443069 3.968850 5.564823 -0.167763 -1.870743 2.551998 0.169390 -10.033976 -0.396175 -0.250970 -9.590716 -8.070116 -11.384688 -1.084507 9.189118 -16.527097 15.092855 3.067473 -8.013177 6.191728 0.000000 0.000000 0.000000 -3.735278 17.451461 -9.529113 14.241173 -23.078473 2.921986 18.748153 -0.950786 0.743834 0.000000 0.000000 0.000000 -7.125000 0.000000 0.000000 -6.107724 29.170098 -2.368440 0.000000 0.000000 0.000000 1.088734 13.603128 11.999729 -13.139631 -21.491422 -2.504231 12.065534 30.301063 32.660920 0.000000 0.000000 0.000000 7.125000 0.000000 0.000000 47.159789 56.176793 -15.299448
0.659499 17.441034 9.358737 -9.381189 0.867454 9.290760 0.000000 0.000000 0.000000 -17.363993 -39.360500 22.529084 0.066636 -1.665529 -4.582112 -5.820959 41.351286 -35.818195 0.097607 2.014568 5.545822 0.000000 0.000000 0.000000 28.231644 23.859130 4.922018 -0.021634 -0.948805 2.607946 0.881919 -20.364488 -20.629297 -0.054701 -1.508843 4.150126 5.292665 -0.173724 -1.877274 2.553451 0.155378 -10.119162 -0.241101 -0.237599 -9.679065 -8.148390 -11.358283 -1.208741 9.245231 -16.501836 15.217120 3.087705 -7.994736 6.261139 0.000000 0.000000 0.000000 -3.749156 17.404482 -9.366165 14.288330 -23.145409 2.940478 18.626457 -1.072406 0.685062 0.000000 0.000000 0.000000 -7.125000 0.000000 0.000000 -6.206183 29.231504 -2.397846 0.000000 0.000000 0.000000 1.101461 13.511233 11.912084 -13.032122 -21.334204 -2.464993 12.067752 30.551999 32.525588 0.000000 0.000000 0.000000 7.125000 0.000000 0.000000 47.026868 56.078210 -15.120202
